# xmcd
#
# Track frame offsets:
#	150
#	26885
#	61327
#	95484
#	118608
#	156270
#	183549
#
# Disc length: 3013 seconds
#
# Revision: 1
# Processed by: cddbd v1.5.1PL2 Copyright (c) Steve Scherf et al.
# Submitted via: audiograbber 1.83.01
#
DISCID=5c0bc307
DTITLE=Mike Sponza Trio - Live On Blues Island
DYEAR=2005
DGENRE=
TTITLE0=Help The Poor
TTITLE1=Fine And Mellow
TTITLE2=What You Won't Do For Love
TTITLE3=Amazing Grace
TTITLE4=Use Me
TTITLE5=Everyday I Have The Blues
TTITLE6=Jesus Is A Rock
EXTD=
EXTT0=
EXTT1=
EXTT2=
EXTT3=
EXTT4=
EXTT5=
EXTT6=
PLAYORDER=
